<?xml version="1.0" standalone="no"?>
<!DOCTYPE svg PUBLIC "-//W3C//DTD SVG 20010904//EN"
 "http://www.w3.org/TR/2001/REC-SVG-20010904/DTD/svg10.dtd">
<svg version="1.0" xmlns="http://www.w3.org/2000/svg"
 width="700.000000pt" height="700.000000pt" viewBox="0 0 700.000000 700.000000"
 preserveAspectRatio="xMidYMid meet">
<metadata>
Created by potrace 1.14, written by Peter Selinger 2001-2017
</metadata>
<g transform="translate(0.000000,700.000000) scale(0.100000,-0.100000)"
fill="#000000" stroke="none">
<path d="M1457 6124 c-1 -1 -54 -5 -117 -9 -63 -3 -124 -8 -135 -11 -11 -2
-47 -6 -80 -9 -33 -3 -67 -7 -75 -10 -8 -2 -36 -6 -62 -9 -106 -12 -306 -57
-485 -110 -226 -67 -246 -78 -329 -181 -103 -128 -162 -233 -166 -296 -5 -104
35 -154 155 -191 128 -40 398 -27 461 23 31 24 37 51 17 76 -15 19 -169 75
-240 88 -19 3 -43 11 -54 16 -17 10 -17 13 -5 25 50 50 362 118 643 139 85 7
586 8 645 1 19 -2 71 -7 115 -11 44 -4 87 -8 95 -10 8 -2 44 -6 80 -9 36 -4
90 -11 120 -16 106 -18 115 -19 155 -25 22 -4 58 -10 80 -15 22 -5 56 -12 75
-15 54 -9 206 -44 295 -66 44 -12 87 -23 95 -25 8 -2 40 -10 70 -19 30 -9 63
-18 73 -20 100 -23 429 -134 627 -212 370 -146 830 -376 1125 -562 423 -265
670 -457 939 -727 380 -381 596 -749 657 -1114 15 -93 15 -313 -1 -398 -25
-139 -113 -347 -190 -447 -85 -112 -214 -230 -354 -325 -149 -100 -493 -249
-659 -285 -9 -2 -21 -7 -27 -10 -10 -6 -90 -25 -240 -55 -126 -25 -138 -27
-206 -35 -33 -4 -67 -9 -76 -11 -64 -11 -179 -17 -343 -17 -180 0 -452 10
-464 17 -3 2 -31 7 -61 10 -155 18 -312 46 -326 57 -6 5 -12 46 -13 92 -2 45
-4 114 -6 152 -11 239 -26 1282 -19 1306 3 12 16 15 62 13 31 -1 136 -5 232
-9 96 -3 193 -8 215 -10 125 -10 191 -18 285 -31 58 -8 123 -18 145 -21 71 -9
274 -53 363 -79 166 -47 312 -138 312 -194 0 -53 -64 -117 -167 -169 -205
-103 -218 -135 -81 -195 188 -83 333 -79 475 13 169 110 256 264 256 456 -1
152 -45 248 -172 373 -92 90 -171 144 -303 206 -180 86 -391 147 -613 179 -16
3 -57 10 -90 16 -33 6 -78 13 -100 16 -199 26 -326 36 -526 40 -129 3 -242 8
-251 11 -14 4 -18 17 -19 62 0 31 -2 82 -4 112 -2 30 -6 102 -10 160 -3 58 -8
112 -10 120 -2 8 -6 42 -10 75 -8 84 -33 229 -51 299 -24 92 -99 217 -180 299
-99 100 -159 48 -218 -192 -26 -101 -61 -305 -70 -406 -4 -33 -8 -71 -10 -85
-5 -31 -14 -136 -22 -255 -3 -49 -7 -108 -9 -130 -2 -22 -4 -58 -4 -81 l-1
-41 -137 -27 c-76 -16 -221 -52 -323 -82 -102 -30 -192 -56 -200 -59 -215 -60
-532 -207 -725 -336 -231 -154 -313 -385 -210 -591 40 -79 214 -294 347 -428
319 -322 642 -560 1057 -778 74 -38 137 -76 141 -84 4 -7 10 -35 13 -63 8 -66
26 -162 38 -201 5 -17 12 -42 14 -55 12 -63 52 -144 93 -190 63 -71 89 -81
196 -82 83 0 97 3 156 32 36 18 73 40 83 48 28 26 53 121 58 227 2 26 8 50 15
53 7 2 63 -7 126 -21 128 -28 183 -38 283 -52 28 -3 57 -8 67 -9 9 -2 38 -6
65 -10 26 -4 59 -9 73 -11 125 -19 689 -22 809 -3 25 3 71 10 101 13 30 4 91
13 135 21 44 8 94 17 110 20 61 10 77 14 185 40 348 85 771 280 1015 468 88
68 249 230 325 327 36 46 100 138 100 145 0 1 15 29 33 62 42 74 108 230 133
313 14 47 54 229 59 269 3 25 9 76 13 114 41 342 -108 813 -391 1237 -180 270
-444 565 -708 791 -152 132 -163 141 -239 198 -41 31 -77 58 -80 61 -17 19
-334 236 -425 291 -47 29 -37 22 -217 128 -320 188 -517 284 -863 424 -440
177 -1073 357 -1485 422 -19 3 -60 10 -90 15 -30 5 -75 12 -100 15 -25 3 -61
7 -80 10 -35 5 -111 13 -185 20 -110 11 -590 26 -598 19z m1198 -3623 c-3
-201 -8 -404 -11 -451 -2 -47 -6 -123 -9 -170 -5 -101 -17 -267 -20 -295 -1
-11 -3 -35 -4 -52 -1 -21 -6 -33 -15 -33 -37 0 -395 164 -549 251 -267 151
-486 318 -695 528 -109 110 -122 130 -122 185 0 65 23 100 92 136 87 46 310
121 433 146 122 24 185 36 210 40 17 3 71 12 120 20 50 8 110 16 134 19 24 2
60 7 80 10 39 5 92 10 211 21 41 3 76 7 78 8 1 2 18 3 38 3 l36 0 -7 -366z"/>
</g>
</svg>
